# Blender 3.3.0 Release Candidate
# www.blender.org
mtllib elicottero3.mtl
o Elica2
v -4.738560 1.560435 0.177490
v -5.064476 1.371615 0.177490
v -4.738860 1.633755 0.177490
v -4.986421 1.288009 0.177490
v -5.347781 1.086631 0.177490
v -5.424049 1.084943 0.177490
v -4.738768 1.611195 0.188477
v -5.064476 1.371615 0.188477
v -4.738860 1.633755 0.188477
v -5.040459 1.345890 0.188477
v -5.400582 1.085462 0.188477
v -5.424049 1.084943 0.188477
vn -0.0000 -0.0000 -1.0000
vn -0.0000 -0.0000 1.0000
vn 0.1101 -0.1720 0.9789
vn 1.0000 0.0041 -0.0000
vn 0.0221 -0.9998 -0.0000
vn -0.6234 0.7819 -0.0000
vn -0.6271 0.7789 -0.0000
vn 0.1306 -0.1335 0.9824
vt 0.911743 0.805266
vt 0.500000 0.767713
vt 0.500000 1.000000
vt 1.000000 0.631763
vt 1.000000 0.500000
vt 0.500000 0.500000
vt 0.626690 0.940082
vt 0.500000 0.767713
vt 0.500000 1.000000
vt 0.653846 0.725882
vt 0.653846 0.500000
vt 0.500000 0.500000
s 0
usemtl Material
f 2/2/1 3/3/1 1/1/1 4/4/1
f 6/6/1 2/2/1 4/4/1 5/5/1
f 8/8/2 10/10/2 7/7/2 9/9/2
f 12/12/2 11/11/2 10/10/2 8/8/2
f 5/5/3 4/4/3 10/10/3 11/11/3
f 1/1/4 3/3/4 9/9/4 7/7/4
f 6/6/5 5/5/5 11/11/5 12/12/5
f 2/2/6 6/6/6 12/12/6 8/8/6
f 3/3/7 2/2/7 8/8/7 9/9/7
f 4/4/8 1/1/8 7/7/8 10/10/8
o Plane.004
v -5.899541 1.770432 0.177490
v -5.710721 1.444515 0.177490
v -5.972861 1.770131 0.177490
v -5.627115 1.522571 0.177490
v -5.425736 1.161211 0.177490
v -5.424049 1.084943 0.177490
v -5.950301 1.770224 0.188477
v -5.710721 1.444515 0.188477
v -5.972861 1.770131 0.188477
v -5.684997 1.468533 0.188477
v -5.424568 1.108410 0.188477
v -5.424049 1.084943 0.188477
vn -0.0000 -0.0000 -1.0000
vn -0.0000 -0.0000 1.0000
vn 0.1720 0.1101 0.9789
vn -0.0041 1.0000 -0.0000
vn 0.9998 0.0221 -0.0000
vn -0.7819 -0.6234 -0.0000
vn -0.7789 -0.6271 -0.0000
vn 0.1335 0.1306 0.9824
vt 0.911743 0.805266
vt 0.500000 0.767713
vt 0.500000 1.000000
vt 1.000000 0.631763
vt 1.000000 0.500000
vt 0.500000 0.500000
vt 0.626690 0.940082
vt 0.500000 0.767713
vt 0.500000 1.000000
vt 0.653846 0.725882
vt 0.653846 0.500000
vt 0.500000 0.500000
s 0
usemtl Material
f 14/14/9 15/15/9 13/13/9 16/16/9
f 18/18/9 14/14/9 16/16/9 17/17/9
f 20/20/10 22/22/10 19/19/10 21/21/10
f 24/24/10 23/23/10 22/22/10 20/20/10
f 17/17/11 16/16/11 22/22/11 23/23/11
f 13/13/12 15/15/12 21/21/12 19/19/12
f 18/18/13 17/17/13 23/23/13 24/24/13
f 14/14/14 18/18/14 24/24/14 20/20/14
f 15/15/15 14/14/15 20/20/15 21/21/15
f 16/16/16 13/13/16 19/19/16 22/22/16
o Plane.005
v -6.109538 0.609451 0.177490
v -5.783621 0.798270 0.177490
v -6.109237 0.536131 0.177490
v -5.861677 0.881876 0.177490
v -5.500317 1.083255 0.177490
v -5.424049 1.084943 0.177490
v -6.109330 0.558691 0.188477
v -5.783621 0.798270 0.188477
v -6.109237 0.536131 0.188477
v -5.807639 0.823995 0.188477
v -5.447516 1.084424 0.188477
v -5.424049 1.084943 0.188477
vn -0.0000 -0.0000 -1.0000
vn -0.0000 -0.0000 1.0000
vn -0.1101 0.1720 0.9789
vn -1.0000 -0.0041 -0.0000
vn -0.0221 0.9998 -0.0000
vn 0.6234 -0.7819 -0.0000
vn 0.6271 -0.7789 -0.0000
vn -0.1306 0.1335 0.9824
vt 0.911743 0.805266
vt 0.500000 0.767713
vt 0.500000 1.000000
vt 1.000000 0.631763
vt 1.000000 0.500000
vt 0.500000 0.500000
vt 0.626690 0.940082
vt 0.500000 0.767713
vt 0.500000 1.000000
vt 0.653846 0.725882
vt 0.653846 0.500000
vt 0.500000 0.500000
s 0
usemtl Material
f 26/26/17 27/27/17 25/25/17 28/28/17
f 30/30/17 26/26/17 28/28/17 29/29/17
f 32/32/18 34/34/18 31/31/18 33/33/18
f 36/36/18 35/35/18 34/34/18 32/32/18
f 29/29/19 28/28/19 34/34/19 35/35/19
f 25/25/20 27/27/20 33/33/20 31/31/20
f 30/30/21 29/29/21 35/35/21 36/36/21
f 26/26/22 30/30/22 36/36/22 32/32/22
f 27/27/23 26/26/23 32/32/23 33/33/23
f 28/28/24 25/25/24 31/31/24 34/34/24
o Plane.006
v -4.948556 0.399454 0.177490
v -5.137376 0.725371 0.177490
v -4.875237 0.399755 0.177490
v -5.220983 0.647315 0.177490
v -5.422361 1.008675 0.177490
v -5.424049 1.084943 0.177490
v -4.897797 0.399662 0.188477
v -5.137376 0.725371 0.188477
v -4.875237 0.399755 0.188477
v -5.163101 0.701353 0.188477
v -5.423530 1.061476 0.188477
v -5.424049 1.084943 0.188477
vn -0.0000 -0.0000 -1.0000
vn -0.0000 -0.0000 1.0000
vn -0.1720 -0.1101 0.9789
vn 0.0041 -1.0000 -0.0000
vn -0.9998 -0.0221 -0.0000
vn 0.7819 0.6234 -0.0000
vn 0.7789 0.6271 -0.0000
vn -0.1335 -0.1306 0.9824
vt 0.911743 0.805266
vt 0.500000 0.767713
vt 0.500000 1.000000
vt 1.000000 0.631763
vt 1.000000 0.500000
vt 0.500000 0.500000
vt 0.626690 0.940082
vt 0.500000 0.767713
vt 0.500000 1.000000
vt 0.653846 0.725882
vt 0.653846 0.500000
vt 0.500000 0.500000
s 0
usemtl Material
f 38/38/25 39/39/25 37/37/25 40/40/25
f 42/42/25 38/38/25 40/40/25 41/41/25
f 44/44/26 46/46/26 43/43/26 45/45/26
f 48/48/26 47/47/26 46/46/26 44/44/26
f 41/41/27 40/40/27 46/46/27 47/47/27
f 37/37/28 39/39/28 45/45/28 43/43/28
f 42/42/29 41/41/29 47/47/29 48/48/29
f 38/38/30 42/42/30 48/48/30 44/44/30
f 39/39/31 38/38/31 44/44/31 45/45/31
f 40/40/32 37/37/32 43/43/32 46/46/32
