# Blender 3.3.0 Release Candidate
# www.blender.org
mtllib jeep2.mtl
o Circle
v 1.324401 -0.108777 0.809500
v 1.137215 -0.146011 0.809500
v 0.978526 -0.252043 0.809500
v 0.872494 -0.410731 0.809500
v 0.835261 -0.597917 0.809500
v 0.872494 -0.785103 0.809500
v 0.978526 -0.943791 0.809500
v 1.137215 -1.049823 0.809500
v 1.324401 -1.087057 0.809500
v 1.511586 -1.049823 0.809500
v 1.670275 -0.943791 0.809500
v 1.776307 -0.785103 0.809500
v 1.813540 -0.597917 0.809500
v 1.776307 -0.410731 0.809500
v 1.670275 -0.252043 0.809500
v 1.511586 -0.146011 0.809500
v 1.193486 -0.281862 1.137313
v 1.324401 -0.255821 1.137313
v 1.082502 -0.356019 1.137313
v 1.008345 -0.467003 1.137313
v 0.982305 -0.597917 1.137313
v 1.008345 -0.728831 1.137313
v 1.082502 -0.839815 1.137313
v 1.193486 -0.913972 1.137313
v 1.324401 -0.940013 1.137313
v 1.455315 -0.913972 1.137313
v 1.566299 -0.839815 1.137313
v 1.640456 -0.728831 1.137313
v 1.666496 -0.597917 1.137313
v 1.640456 -0.467003 1.137313
v 1.566299 -0.356019 1.137313
v 1.455315 -0.281862 1.137313
v 1.137215 -0.146011 1.137313
v 1.324401 -0.108777 1.137313
v 0.978526 -0.252043 1.137313
v 0.872494 -0.410731 1.137313
v 0.835261 -0.597917 1.137313
v 0.872494 -0.785103 1.137313
v 0.978526 -0.943791 1.137313
v 1.137215 -1.049823 1.137313
v 1.324401 -1.087057 1.137313
v 1.511586 -1.049823 1.137313
v 1.670275 -0.943791 1.137313
v 1.776307 -0.785103 1.137313
v 1.813540 -0.597917 1.137313
v 1.776307 -0.410731 1.137313
v 1.670275 -0.252043 1.137313
v 1.511586 -0.146011 1.137313
v 1.213811 -0.330929 1.070893
v 1.324401 -0.308931 1.070893
v 1.120057 -0.393573 1.070893
v 1.057413 -0.487327 1.070893
v 1.035415 -0.597917 1.070893
v 1.057413 -0.708507 1.070893
v 1.120057 -0.802261 1.070893
v 1.213811 -0.864905 1.070893
v 1.324401 -0.886903 1.070893
v 1.434991 -0.864905 1.070893
v 1.528744 -0.802261 1.070893
v 1.591388 -0.708507 1.070893
v 1.613386 -0.597917 1.070893
v 1.591388 -0.487327 1.070893
v 1.528744 -0.393573 1.070893
v 1.434991 -0.330929 1.070893
v 1.193486 -0.281862 1.070893
v 1.324401 -0.255821 1.070893
v 1.082502 -0.356019 1.070893
v 1.008345 -0.467003 1.070893
v 0.982305 -0.597917 1.070893
v 1.008345 -0.728831 1.070893
v 1.082502 -0.839815 1.070893
v 1.193486 -0.913972 1.070893
v 1.324401 -0.940013 1.070893
v 1.455315 -0.913972 1.070893
v 1.566299 -0.839815 1.070893
v 1.640456 -0.728831 1.070893
v 1.666496 -0.597917 1.070893
v 1.640456 -0.467003 1.070893
v 1.566299 -0.356019 1.070893
v 1.455315 -0.281862 1.070893
v 1.213811 -0.330929 1.148372
v 1.324401 -0.308931 1.148372
v 1.120057 -0.393573 1.148372
v 1.057413 -0.487327 1.148372
v 1.035415 -0.597917 1.148372
v 1.057413 -0.708507 1.148372
v 1.120057 -0.802261 1.148372
v 1.213811 -0.864905 1.148372
v 1.324401 -0.886903 1.148372
v 1.434991 -0.864905 1.148372
v 1.528744 -0.802261 1.148372
v 1.591388 -0.708507 1.148372
v 1.613386 -0.597917 1.148372
v 1.591388 -0.487327 1.148372
v 1.528744 -0.393573 1.148372
v 1.434991 -0.330929 1.148372
vn -0.0000 -0.0000 -1.0000
vn -0.9808 0.1951 -0.0000
vn 0.9808 -0.1951 -0.0000
vn -0.9808 -0.1951 -0.0000
vn 0.9808 0.1951 -0.0000
vn -0.8315 -0.5556 -0.0000
vn 0.8315 0.5556 -0.0000
vn -0.5556 -0.8315 -0.0000
vn 0.5556 0.8315 -0.0000
vn -0.1951 -0.9808 -0.0000
vn -0.1951 0.9808 -0.0000
vn 0.1951 0.9808 -0.0000
vn 0.1951 -0.9808 -0.0000
vn -0.5556 0.8315 -0.0000
vn 0.5556 -0.8315 -0.0000
vn -0.8315 0.5556 -0.0000
vn 0.8315 -0.5556 -0.0000
vn -0.0000 -0.0000 1.0000
vt 0.000000 0.000000
vt 0.000000 0.000000
vt 0.000000 0.000000
vt 0.000000 0.000000
vt 0.000000 0.000000
vt 0.000000 0.000000
vt 0.000000 0.000000
vt 0.000000 0.000000
vt 0.000000 0.000000
vt 0.000000 0.000000
vt 0.000000 0.000000
vt 0.000000 0.000000
vt 0.000000 0.000000
vt 0.000000 0.000000
vt 0.000000 0.000000
vt 0.000000 0.000000
vt 0.000000 0.000000
vt 0.000000 0.000000
vt 0.000000 0.000000
vt 0.000000 0.000000
vt 0.000000 0.000000
vt 0.000000 0.000000
vt 0.000000 0.000000
vt 0.000000 0.000000
vt 0.000000 0.000000
vt 0.000000 0.000000
vt 0.000000 0.000000
vt 0.000000 0.000000
vt 0.000000 0.000000
vt 0.000000 0.000000
vt 0.000000 0.000000
vt 0.000000 0.000000
vt 0.000000 0.000000
vt 0.000000 0.000000
vt 0.000000 0.000000
vt 0.000000 0.000000
vt 0.000000 0.000000
vt 0.000000 0.000000
vt 0.000000 0.000000
vt 0.000000 0.000000
vt 0.000000 0.000000
vt 0.000000 0.000000
vt 0.000000 0.000000
vt 0.000000 0.000000
vt 0.000000 0.000000
vt 0.000000 0.000000
vt 0.000000 0.000000
vt 0.000000 0.000000
vt 0.000000 0.000000
vt 0.000000 0.000000
vt 0.000000 0.000000
vt 0.000000 0.000000
vt 0.000000 0.000000
vt 0.000000 0.000000
vt 0.000000 0.000000
vt 0.000000 0.000000
vt 0.000000 0.000000
vt 0.000000 0.000000
vt 0.000000 0.000000
vt 0.000000 0.000000
vt 0.000000 0.000000
vt 0.000000 0.000000
vt 0.000000 0.000000
vt 0.000000 0.000000
vt 0.000000 0.000000
vt 0.000000 0.000000
vt 0.000000 0.000000
vt 0.000000 0.000000
vt 0.000000 0.000000
vt 0.000000 0.000000
vt 0.000000 0.000000
vt 0.000000 0.000000
vt 0.000000 0.000000
vt 0.000000 0.000000
vt 0.000000 0.000000
vt 0.000000 0.000000
vt 0.000000 0.000000
vt 0.000000 0.000000
vt 0.000000 0.000000
vt 0.000000 0.000000
vt 0.000000 0.000000
vt 0.000000 0.000000
vt 0.000000 0.000000
vt 0.000000 0.000000
vt 0.000000 0.000000
vt 0.000000 0.000000
vt 0.000000 0.000000
vt 0.000000 0.000000
vt 0.000000 0.000000
vt 0.000000 0.000000
vt 0.000000 0.000000
vt 0.000000 0.000000
vt 0.000000 0.000000
vt 0.000000 0.000000
vt 0.000000 0.000000
vt 0.000000 0.000000
s 0
f 2/2/1 1/1/1 16/16/1 15/15/1 14/14/1 13/13/1 12/12/1 11/11/1 10/10/1 9/9/1 8/8/1 7/7/1 6/6/1 5/5/1 4/4/1 3/3/1
f 28/28/2 29/29/2 77/77/2 76/76/2
f 4/4/2 5/5/2 37/37/2 36/36/2
f 12/12/3 13/13/3 45/45/3 44/44/3
f 5/5/4 6/6/4 38/38/4 37/37/4
f 13/13/5 14/14/5 46/46/5 45/45/5
f 6/6/6 7/7/6 39/39/6 38/38/6
f 14/14/7 15/15/7 47/47/7 46/46/7
f 7/7/8 8/8/8 40/40/8 39/39/8
f 15/15/9 16/16/9 48/48/9 47/47/9
f 8/8/10 9/9/10 41/41/10 40/40/10
f 1/1/11 2/2/11 33/33/11 34/34/11
f 16/16/12 1/1/12 34/34/12 48/48/12
f 9/9/13 10/10/13 42/42/13 41/41/13
f 2/2/14 3/3/14 35/35/14 33/33/14
f 10/10/15 11/11/15 43/43/15 42/42/15
f 3/3/16 4/4/16 36/36/16 35/35/16
f 11/11/17 12/12/17 44/44/17 43/43/17
f 17/17/18 18/18/18 34/34/18 33/33/18
f 19/19/18 17/17/18 33/33/18 35/35/18
f 20/20/18 19/19/18 35/35/18 36/36/18
f 21/21/18 20/20/18 36/36/18 37/37/18
f 22/22/18 21/21/18 37/37/18 38/38/18
f 23/23/18 22/22/18 38/38/18 39/39/18
f 24/24/18 23/23/18 39/39/18 40/40/18
f 25/25/18 24/24/18 40/40/18 41/41/18
f 26/26/18 25/25/18 41/41/18 42/42/18
f 27/27/18 26/26/18 42/42/18 43/43/18
f 28/28/18 27/27/18 43/43/18 44/44/18
f 29/29/18 28/28/18 44/44/18 45/45/18
f 30/30/18 29/29/18 45/45/18 46/46/18
f 31/31/18 30/30/18 46/46/18 47/47/18
f 32/32/18 31/31/18 47/47/18 48/48/18
f 18/18/18 32/32/18 48/48/18 34/34/18
f 52/52/2 53/53/2 85/85/2 84/84/2
f 21/21/5 22/22/5 70/70/5 69/69/5
f 29/29/4 30/30/4 78/78/4 77/77/4
f 22/22/7 23/23/7 71/71/7 70/70/7
f 30/30/6 31/31/6 79/79/6 78/78/6
f 23/23/9 24/24/9 72/72/9 71/71/9
f 31/31/8 32/32/8 80/80/8 79/79/8
f 24/24/12 25/25/12 73/73/12 72/72/12
f 18/18/13 17/17/13 65/65/13 66/66/13
f 32/32/10 18/18/10 66/66/10 80/80/10
f 25/25/11 26/26/11 74/74/11 73/73/11
f 17/17/15 19/19/15 67/67/15 65/65/15
f 26/26/14 27/27/14 75/75/14 74/74/14
f 19/19/17 20/20/17 68/68/17 67/67/17
f 27/27/16 28/28/16 76/76/16 75/75/16
f 20/20/3 21/21/3 69/69/3 68/68/3
f 49/49/18 50/50/18 66/66/18 65/65/18
f 51/51/18 49/49/18 65/65/18 67/67/18
f 52/52/18 51/51/18 67/67/18 68/68/18
f 53/53/18 52/52/18 68/68/18 69/69/18
f 54/54/18 53/53/18 69/69/18 70/70/18
f 55/55/18 54/54/18 70/70/18 71/71/18
f 56/56/18 55/55/18 71/71/18 72/72/18
f 57/57/18 56/56/18 72/72/18 73/73/18
f 58/58/18 57/57/18 73/73/18 74/74/18
f 59/59/18 58/58/18 74/74/18 75/75/18
f 60/60/18 59/59/18 75/75/18 76/76/18
f 61/61/18 60/60/18 76/76/18 77/77/18
f 62/62/18 61/61/18 77/77/18 78/78/18
f 63/63/18 62/62/18 78/78/18 79/79/18
f 64/64/18 63/63/18 79/79/18 80/80/18
f 50/50/18 64/64/18 80/80/18 66/66/18
f 81/81/18 83/83/18 84/84/18 85/85/18 86/86/18 87/87/18 88/88/18 89/89/18 90/90/18 91/91/18 92/92/18 93/93/18 94/94/18 95/95/18 96/96/18 82/82/18
f 60/60/3 61/61/3 93/93/3 92/92/3
f 53/53/4 54/54/4 86/86/4 85/85/4
f 61/61/5 62/62/5 94/94/5 93/93/5
f 54/54/6 55/55/6 87/87/6 86/86/6
f 62/62/7 63/63/7 95/95/7 94/94/7
f 55/55/8 56/56/8 88/88/8 87/87/8
f 63/63/9 64/64/9 96/96/9 95/95/9
f 56/56/10 57/57/10 89/89/10 88/88/10
f 50/50/11 49/49/11 81/81/11 82/82/11
f 64/64/12 50/50/12 82/82/12 96/96/12
f 57/57/13 58/58/13 90/90/13 89/89/13
f 49/49/14 51/51/14 83/83/14 81/81/14
f 58/58/15 59/59/15 91/91/15 90/90/15
f 51/51/16 52/52/16 84/84/16 83/83/16
f 59/59/17 60/60/17 92/92/17 91/91/17
o Cylinder
v 1.324401 -0.416891 -1.025642
v 1.324401 -0.416891 0.818941
v 1.442052 -0.465623 -1.025642
v 1.442052 -0.465624 0.818941
v 1.490785 -0.583275 -1.025642
v 1.490785 -0.583275 0.818941
v 1.442052 -0.700926 -1.025642
v 1.442052 -0.700927 0.818941
v 1.324401 -0.749659 -1.025642
v 1.324401 -0.749659 0.818941
v 1.206749 -0.700926 -1.025642
v 1.206749 -0.700927 0.818941
v 1.158016 -0.583275 -1.025642
v 1.158016 -0.583275 0.818941
v 1.206749 -0.465623 -1.025642
v 1.206749 -0.465624 0.818941
vn 0.3827 0.9239 -0.0000
vn 0.9239 0.3827 -0.0000
vn 0.9239 -0.3827 -0.0000
vn 0.3827 -0.9239 -0.0000
vn -0.3827 -0.9239 -0.0000
vn -0.9239 -0.3827 -0.0000
vn -0.0000 -0.0000 1.0000
vn -0.9239 0.3827 -0.0000
vn -0.3827 0.9239 -0.0000
vn -0.0000 -0.0000 -1.0000
vt 1.000000 0.500000
vt 0.000000 0.500000
vt 0.750000 0.490000
vt 1.000000 1.000000
vt 0.250000 0.490000
vt 0.000000 1.000000
vt 0.875000 0.500000
vt 0.919706 0.419706
vt 0.875000 1.000000
vt 0.419706 0.419706
vt 0.750000 0.500000
vt 0.990000 0.250000
vt 0.750000 1.000000
vt 0.490000 0.250000
vt 0.625000 0.500000
vt 0.919706 0.080294
vt 0.625000 1.000000
vt 0.419706 0.080294
vt 0.500000 0.500000
vt 0.750000 0.010000
vt 0.500000 1.000000
vt 0.250000 0.010000
vt 0.375000 0.500000
vt 0.580294 0.080294
vt 0.375000 1.000000
vt 0.080294 0.080294
vt 0.250000 0.500000
vt 0.510000 0.250000
vt 0.010000 0.250000
vt 0.250000 1.000000
vt 0.125000 0.500000
vt 0.580294 0.419706
vt 0.080294 0.419706
vt 0.125000 1.000000
s 0
f 97/97/19 98/100/19 100/105/19 99/103/19
f 99/103/20 100/105/20 102/109/20 101/107/20
f 101/107/21 102/109/21 104/113/21 103/111/21
f 103/111/22 104/113/22 106/117/22 105/115/22
f 105/115/23 106/117/23 108/121/23 107/119/23
f 107/119/24 108/121/24 110/126/24 109/123/24
f 100/106/25 98/101/25 112/129/25 110/125/25 108/122/25 106/118/25 104/114/25 102/110/25
f 109/123/26 110/126/26 112/130/26 111/127/26
f 111/127/27 112/130/27 98/102/27 97/98/27
f 97/99/28 99/104/28 101/108/28 103/112/28 105/116/28 107/120/28 109/124/28 111/128/28
o Circle.001
v 1.324401 -1.087057 -0.913428
v 1.137215 -1.049823 -0.913428
v 0.978526 -0.943791 -0.913428
v 0.872494 -0.785103 -0.913428
v 0.835261 -0.597917 -0.913428
v 0.872494 -0.410731 -0.913428
v 0.978526 -0.252043 -0.913428
v 1.137215 -0.146011 -0.913428
v 1.324401 -0.108777 -0.913428
v 1.511586 -0.146011 -0.913428
v 1.670275 -0.252043 -0.913428
v 1.776307 -0.410731 -0.913428
v 1.813540 -0.597917 -0.913428
v 1.776307 -0.785103 -0.913428
v 1.670275 -0.943791 -0.913428
v 1.511586 -1.049823 -0.913428
v 1.193486 -0.913972 -1.241241
v 1.324401 -0.940013 -1.241241
v 1.082502 -0.839815 -1.241241
v 1.008345 -0.728831 -1.241241
v 0.982305 -0.597917 -1.241241
v 1.008345 -0.467003 -1.241241
v 1.082502 -0.356019 -1.241241
v 1.193486 -0.281862 -1.241241
v 1.324401 -0.255821 -1.241241
v 1.455315 -0.281862 -1.241241
v 1.566299 -0.356019 -1.241241
v 1.640456 -0.467003 -1.241241
v 1.666496 -0.597917 -1.241241
v 1.640456 -0.728831 -1.241241
v 1.566299 -0.839815 -1.241241
v 1.455315 -0.913972 -1.241241
v 1.137215 -1.049823 -1.241241
v 1.324401 -1.087057 -1.241241
v 0.978526 -0.943791 -1.241241
v 0.872494 -0.785103 -1.241241
v 0.835261 -0.597917 -1.241241
v 0.872494 -0.410731 -1.241241
v 0.978526 -0.252043 -1.241241
v 1.137215 -0.146011 -1.241241
v 1.324401 -0.108777 -1.241241
v 1.511586 -0.146011 -1.241241
v 1.670275 -0.252043 -1.241241
v 1.776307 -0.410731 -1.241241
v 1.813540 -0.597917 -1.241241
v 1.776307 -0.785103 -1.241241
v 1.670275 -0.943791 -1.241241
v 1.511586 -1.049823 -1.241241
v 1.213811 -0.864905 -1.174821
v 1.324401 -0.886903 -1.174821
v 1.120057 -0.802261 -1.174821
v 1.057413 -0.708507 -1.174821
v 1.035415 -0.597917 -1.174821
v 1.057413 -0.487327 -1.174821
v 1.120057 -0.393573 -1.174821
v 1.213811 -0.330929 -1.174821
v 1.324401 -0.308931 -1.174821
v 1.434991 -0.330929 -1.174821
v 1.528744 -0.393573 -1.174821
v 1.591388 -0.487327 -1.174821
v 1.613386 -0.597917 -1.174821
v 1.591388 -0.708507 -1.174821
v 1.528744 -0.802261 -1.174821
v 1.434991 -0.864905 -1.174821
v 1.193486 -0.913972 -1.174821
v 1.324401 -0.940013 -1.174821
v 1.082502 -0.839815 -1.174821
v 1.008345 -0.728831 -1.174821
v 0.982305 -0.597917 -1.174821
v 1.008345 -0.467003 -1.174821
v 1.082502 -0.356019 -1.174821
v 1.193486 -0.281862 -1.174821
v 1.324401 -0.255821 -1.174821
v 1.455315 -0.281862 -1.174821
v 1.566299 -0.356019 -1.174821
v 1.640456 -0.467003 -1.174821
v 1.666496 -0.597917 -1.174821
v 1.640456 -0.728831 -1.174821
v 1.566299 -0.839815 -1.174821
v 1.455315 -0.913972 -1.174821
v 1.213811 -0.864905 -1.252300
v 1.324401 -0.886903 -1.252300
v 1.120057 -0.802261 -1.252300
v 1.057413 -0.708507 -1.252300
v 1.035415 -0.597917 -1.252300
v 1.057413 -0.487327 -1.252300
v 1.120057 -0.393573 -1.252300
v 1.213811 -0.330929 -1.252300
v 1.324401 -0.308931 -1.252300
v 1.434991 -0.330929 -1.252300
v 1.528744 -0.393573 -1.252300
v 1.591388 -0.487327 -1.252300
v 1.613386 -0.597917 -1.252300
v 1.591388 -0.708507 -1.252300
v 1.528744 -0.802261 -1.252300
v 1.434991 -0.864905 -1.252300
vn -0.0000 -0.0000 1.0000
vn -0.9808 -0.1951 -0.0000
vn 0.9808 0.1951 -0.0000
vn -0.9808 0.1951 -0.0000
vn 0.9808 -0.1951 -0.0000
vn -0.8315 0.5556 -0.0000
vn 0.8315 -0.5556 -0.0000
vn -0.5556 0.8315 -0.0000
vn 0.5556 -0.8315 -0.0000
vn -0.1951 0.9808 -0.0000
vn -0.1951 -0.9808 -0.0000
vn 0.1951 -0.9808 -0.0000
vn 0.1951 0.9808 -0.0000
vn -0.5556 -0.8315 -0.0000
vn 0.5556 0.8315 -0.0000
vn -0.8315 -0.5556 -0.0000
vn 0.8315 0.5556 -0.0000
vn -0.0000 -0.0000 -1.0000
vt 0.000000 0.000000
vt 0.000000 0.000000
vt 0.000000 0.000000
vt 0.000000 0.000000
vt 0.000000 0.000000
vt 0.000000 0.000000
vt 0.000000 0.000000
vt 0.000000 0.000000
vt 0.000000 0.000000
vt 0.000000 0.000000
vt 0.000000 0.000000
vt 0.000000 0.000000
vt 0.000000 0.000000
vt 0.000000 0.000000
vt 0.000000 0.000000
vt 0.000000 0.000000
vt 0.000000 0.000000
vt 0.000000 0.000000
vt 0.000000 0.000000
vt 0.000000 0.000000
vt 0.000000 0.000000
vt 0.000000 0.000000
vt 0.000000 0.000000
vt 0.000000 0.000000
vt 0.000000 0.000000
vt 0.000000 0.000000
vt 0.000000 0.000000
vt 0.000000 0.000000
vt 0.000000 0.000000
vt 0.000000 0.000000
vt 0.000000 0.000000
vt 0.000000 0.000000
vt 0.000000 0.000000
vt 0.000000 0.000000
vt 0.000000 0.000000
vt 0.000000 0.000000
vt 0.000000 0.000000
vt 0.000000 0.000000
vt 0.000000 0.000000
vt 0.000000 0.000000
vt 0.000000 0.000000
vt 0.000000 0.000000
vt 0.000000 0.000000
vt 0.000000 0.000000
vt 0.000000 0.000000
vt 0.000000 0.000000
vt 0.000000 0.000000
vt 0.000000 0.000000
vt 0.000000 0.000000
vt 0.000000 0.000000
vt 0.000000 0.000000
vt 0.000000 0.000000
vt 0.000000 0.000000
vt 0.000000 0.000000
vt 0.000000 0.000000
vt 0.000000 0.000000
vt 0.000000 0.000000
vt 0.000000 0.000000
vt 0.000000 0.000000
vt 0.000000 0.000000
vt 0.000000 0.000000
vt 0.000000 0.000000
vt 0.000000 0.000000
vt 0.000000 0.000000
vt 0.000000 0.000000
vt 0.000000 0.000000
vt 0.000000 0.000000
vt 0.000000 0.000000
vt 0.000000 0.000000
vt 0.000000 0.000000
vt 0.000000 0.000000
vt 0.000000 0.000000
vt 0.000000 0.000000
vt 0.000000 0.000000
vt 0.000000 0.000000
vt 0.000000 0.000000
vt 0.000000 0.000000
vt 0.000000 0.000000
vt 0.000000 0.000000
vt 0.000000 0.000000
vt 0.000000 0.000000
vt 0.000000 0.000000
vt 0.000000 0.000000
vt 0.000000 0.000000
vt 0.000000 0.000000
vt 0.000000 0.000000
vt 0.000000 0.000000
vt 0.000000 0.000000
vt 0.000000 0.000000
vt 0.000000 0.000000
vt 0.000000 0.000000
vt 0.000000 0.000000
vt 0.000000 0.000000
vt 0.000000 0.000000
vt 0.000000 0.000000
vt 0.000000 0.000000
s 0
f 114/132/29 113/131/29 128/146/29 127/145/29 126/144/29 125/143/29 124/142/29 123/141/29 122/140/29 121/139/29 120/138/29 119/137/29 118/136/29 117/135/29 116/134/29 115/133/29
f 140/158/30 141/159/30 189/207/30 188/206/30
f 116/134/30 117/135/30 149/167/30 148/166/30
f 124/142/31 125/143/31 157/175/31 156/174/31
f 117/135/32 118/136/32 150/168/32 149/167/32
f 125/143/33 126/144/33 158/176/33 157/175/33
f 118/136/34 119/137/34 151/169/34 150/168/34
f 126/144/35 127/145/35 159/177/35 158/176/35
f 119/137/36 120/138/36 152/170/36 151/169/36
f 127/145/37 128/146/37 160/178/37 159/177/37
f 120/138/38 121/139/38 153/171/38 152/170/38
f 113/131/39 114/132/39 145/163/39 146/164/39
f 128/146/40 113/131/40 146/164/40 160/178/40
f 121/139/41 122/140/41 154/172/41 153/171/41
f 114/132/42 115/133/42 147/165/42 145/163/42
f 122/140/43 123/141/43 155/173/43 154/172/43
f 115/133/44 116/134/44 148/166/44 147/165/44
f 123/141/45 124/142/45 156/174/45 155/173/45
f 129/147/46 130/148/46 146/164/46 145/163/46
f 131/149/46 129/147/46 145/163/46 147/165/46
f 132/150/46 131/149/46 147/165/46 148/166/46
f 133/151/46 132/150/46 148/166/46 149/167/46
f 134/152/46 133/151/46 149/167/46 150/168/46
f 135/153/46 134/152/46 150/168/46 151/169/46
f 136/154/46 135/153/46 151/169/46 152/170/46
f 137/155/46 136/154/46 152/170/46 153/171/46
f 138/156/46 137/155/46 153/171/46 154/172/46
f 139/157/46 138/156/46 154/172/46 155/173/46
f 140/158/46 139/157/46 155/173/46 156/174/46
f 141/159/46 140/158/46 156/174/46 157/175/46
f 142/160/46 141/159/46 157/175/46 158/176/46
f 143/161/46 142/160/46 158/176/46 159/177/46
f 144/162/46 143/161/46 159/177/46 160/178/46
f 130/148/46 144/162/46 160/178/46 146/164/46
f 164/182/30 165/183/30 197/215/30 196/214/30
f 133/151/33 134/152/33 182/200/33 181/199/33
f 141/159/32 142/160/32 190/208/32 189/207/32
f 134/152/35 135/153/35 183/201/35 182/200/35
f 142/160/34 143/161/34 191/209/34 190/208/34
f 135/153/37 136/154/37 184/202/37 183/201/37
f 143/161/36 144/162/36 192/210/36 191/209/36
f 136/154/40 137/155/40 185/203/40 184/202/40
f 130/148/41 129/147/41 177/195/41 178/196/41
f 144/162/38 130/148/38 178/196/38 192/210/38
f 137/155/39 138/156/39 186/204/39 185/203/39
f 129/147/43 131/149/43 179/197/43 177/195/43
f 138/156/42 139/157/42 187/205/42 186/204/42
f 131/149/45 132/150/45 180/198/45 179/197/45
f 139/157/44 140/158/44 188/206/44 187/205/44
f 132/150/31 133/151/31 181/199/31 180/198/31
f 161/179/46 162/180/46 178/196/46 177/195/46
f 163/181/46 161/179/46 177/195/46 179/197/46
f 164/182/46 163/181/46 179/197/46 180/198/46
f 165/183/46 164/182/46 180/198/46 181/199/46
f 166/184/46 165/183/46 181/199/46 182/200/46
f 167/185/46 166/184/46 182/200/46 183/201/46
f 168/186/46 167/185/46 183/201/46 184/202/46
f 169/187/46 168/186/46 184/202/46 185/203/46
f 170/188/46 169/187/46 185/203/46 186/204/46
f 171/189/46 170/188/46 186/204/46 187/205/46
f 172/190/46 171/189/46 187/205/46 188/206/46
f 173/191/46 172/190/46 188/206/46 189/207/46
f 174/192/46 173/191/46 189/207/46 190/208/46
f 175/193/46 174/192/46 190/208/46 191/209/46
f 176/194/46 175/193/46 191/209/46 192/210/46
f 162/180/46 176/194/46 192/210/46 178/196/46
f 193/211/46 195/213/46 196/214/46 197/215/46 198/216/46 199/217/46 200/218/46 201/219/46 202/220/46 203/221/46 204/222/46 205/223/46 206/224/46 207/225/46 208/226/46 194/212/46
f 172/190/31 173/191/31 205/223/31 204/222/31
f 165/183/32 166/184/32 198/216/32 197/215/32
f 173/191/33 174/192/33 206/224/33 205/223/33
f 166/184/34 167/185/34 199/217/34 198/216/34
f 174/192/35 175/193/35 207/225/35 206/224/35
f 167/185/36 168/186/36 200/218/36 199/217/36
f 175/193/37 176/194/37 208/226/37 207/225/37
f 168/186/38 169/187/38 201/219/38 200/218/38
f 162/180/39 161/179/39 193/211/39 194/212/39
f 176/194/40 162/180/40 194/212/40 208/226/40
f 169/187/41 170/188/41 202/220/41 201/219/41
f 161/179/42 163/181/42 195/213/42 193/211/42
f 170/188/43 171/189/43 203/221/43 202/220/43
f 163/181/44 164/182/44 196/214/44 195/213/44
f 171/189/45 172/190/45 204/222/45 203/221/45
